<svg xmlns="http://www.w3.org/2000/svg" xmlns:xlink="http://www.w3.org/1999/xlink" width="500" zoomAndPan="magnify" viewBox="0 0 375 374.999991" height="500" preserveAspectRatio="xMidYMid meet" version="1.0"><defs><clipPath id="ddf5058f6f"><path d="M 117.039062 1.382812 L 258.203125 1.382812 L 258.203125 161.585938 L 117.039062 161.585938 Z M 117.039062 1.382812 " clip-rule="nonzero"/></clipPath><clipPath id="631026bc44"><path d="M 183.238281 -25.617188 L 287.457031 78.605469 L 187.277344 178.789062 L 83.054688 74.566406 Z M 183.238281 -25.617188 " clip-rule="nonzero"/></clipPath><clipPath id="470cd43c54"><path d="M 183.238281 -25.617188 L 287.457031 78.605469 L 187.277344 178.789062 L 83.054688 74.566406 Z M 183.238281 -25.617188 " clip-rule="nonzero"/></clipPath><clipPath id="b81ba23881"><path d="M 183.238281 -25.613281 L 287.539062 78.6875 L 187.277344 178.949219 L 82.976562 74.644531 Z M 183.238281 -25.613281 " clip-rule="nonzero"/></clipPath><clipPath id="a0b8d53549"><path d="M 183.238281 -25.613281 L 287.472656 78.621094 L 187.28125 178.816406 L 83.042969 74.578125 Z M 183.238281 -25.613281 " clip-rule="nonzero"/></clipPath><clipPath id="515c01e654"><path d="M 45.304688 227.402344 L 187.136719 227.402344 L 187.136719 374.882812 L 45.304688 374.882812 Z M 45.304688 227.402344 " clip-rule="nonzero"/></clipPath><clipPath id="ab99ce8b12"><path d="M 186.078125 227.332031 L 330.328125 227.332031 L 330.328125 373.128906 L 186.078125 373.128906 Z M 186.078125 227.332031 " clip-rule="nonzero"/></clipPath><clipPath id="e1cf8c4e9f"><path d="M 319.65625 383.339844 L 174.222656 358.019531 L 198.558594 218.210938 L 343.992188 243.53125 Z M 319.65625 383.339844 " clip-rule="nonzero"/></clipPath><clipPath id="51738e4351"><path d="M 319.65625 383.339844 L 174.222656 358.019531 L 198.558594 218.210938 L 343.992188 243.53125 Z M 319.65625 383.339844 " clip-rule="nonzero"/></clipPath><clipPath id="ce6e9d9702"><path d="M 319.65625 383.335938 L 174.113281 358 L 198.46875 218.101562 L 344.007812 243.4375 Z M 319.65625 383.335938 " clip-rule="nonzero"/></clipPath><clipPath id="28730c4ba5"><path d="M 319.65625 383.335938 L 174.207031 358.015625 L 198.542969 218.210938 L 343.992188 243.53125 Z M 319.65625 383.335938 " clip-rule="nonzero"/></clipPath><clipPath id="91d8359cd8"><path d="M 219.308594 98.203125 L 374.984375 98.203125 L 374.984375 236.796875 L 219.308594 236.796875 Z M 219.308594 98.203125 " clip-rule="nonzero"/></clipPath><clipPath id="e21cfda81d"><path d="M 243.222656 80.800781 L 386.914062 113.960938 L 355.039062 252.085938 L 211.347656 218.925781 Z M 243.222656 80.800781 " clip-rule="nonzero"/></clipPath><clipPath id="cb4f27dc18"><path d="M 386.90625 113.957031 L 243.214844 80.796875 L 211.339844 218.925781 L 355.03125 252.085938 Z M 386.90625 113.957031 " clip-rule="nonzero"/></clipPath><clipPath id="9c253ab4a5"><path d="M 386.90625 113.960938 L 243.132812 80.78125 L 211.238281 218.980469 L 355.011719 252.160156 Z M 386.90625 113.960938 " clip-rule="nonzero"/></clipPath><clipPath id="557dae8169"><path d="M 386.90625 113.960938 L 243.222656 80.800781 L 211.351562 218.910156 L 355.035156 252.066406 Z M 386.90625 113.960938 " clip-rule="nonzero"/></clipPath><clipPath id="643615b97d"><path d="M 0 98.101562 L 155.828125 98.101562 L 155.828125 236.28125 L 0 236.28125 Z M 0 98.101562 " clip-rule="nonzero"/></clipPath><clipPath id="56b3477dac"><path d="M -15.894531 118.300781 L 125.632812 77.144531 L 165.199219 213.1875 L 23.671875 254.347656 Z M -15.894531 118.300781 " clip-rule="nonzero"/></clipPath><clipPath id="424c7cedc0"><path d="M -15.894531 118.300781 L 125.632812 77.144531 L 165.199219 213.1875 L 23.671875 254.347656 Z M -15.894531 118.300781 " clip-rule="nonzero"/></clipPath><clipPath id="dde4bbbe33"><path d="M -15.890625 118.304688 L 125.730469 77.117188 L 165.320312 213.253906 L 23.699219 254.4375 Z M -15.890625 118.304688 " clip-rule="nonzero"/></clipPath><clipPath id="5ca366fa44"><path d="M -15.890625 118.304688 L 125.640625 77.144531 L 165.203125 213.1875 L 23.671875 254.347656 Z M -15.890625 118.304688 " clip-rule="nonzero"/></clipPath><clipPath id="1254c6b38e"><path d="M 94.085938 115.796875 L 280.222656 115.796875 L 280.222656 292.878906 L 94.085938 292.878906 Z M 94.085938 115.796875 " clip-rule="nonzero"/></clipPath><clipPath id="a6f051ff21"><path d="M 187.171875 115.796875 C 135.761719 115.796875 94.085938 155.4375 94.085938 204.339844 C 94.085938 253.238281 135.761719 292.878906 187.171875 292.878906 C 238.585938 292.878906 280.261719 253.238281 280.261719 204.339844 C 280.261719 155.4375 238.585938 115.796875 187.171875 115.796875 Z M 187.171875 115.796875 " clip-rule="nonzero"/></clipPath><clipPath id="68c10b5354"><path d="M 139.160156 250.277344 L 150.785156 250.277344 L 150.785156 257.992188 L 139.160156 257.992188 Z M 139.160156 250.277344 " clip-rule="nonzero"/></clipPath><clipPath id="72463da2f3"><path d="M 140.621094 248.710938 L 151.90625 254.542969 L 149.308594 259.566406 L 138.023438 253.734375 Z M 140.621094 248.710938 " clip-rule="nonzero"/></clipPath><clipPath id="c54a0f54a0"><path d="M 146.257812 251.625 C 143.144531 250.015625 140.039062 249.835938 139.324219 251.222656 C 138.605469 252.609375 140.546875 255.039062 143.660156 256.648438 C 146.777344 258.257812 149.882812 258.4375 150.597656 257.050781 C 151.316406 255.664062 149.375 253.234375 146.257812 251.625 Z M 146.257812 251.625 " clip-rule="nonzero"/></clipPath><clipPath id="a9446fce3e"><path d="M 111.277344 219.511719 L 119.507812 219.511719 L 119.507812 230.933594 L 111.277344 230.933594 Z M 111.277344 219.511719 " clip-rule="nonzero"/></clipPath><clipPath id="0e92a32228"><path d="M 114.640625 218.359375 L 121.054688 229.324219 L 116.171875 232.179688 L 109.757812 221.214844 Z M 114.640625 218.359375 " clip-rule="nonzero"/></clipPath><clipPath id="77187fb950"><path d="M 117.84375 223.839844 C 116.074219 220.8125 113.546875 219 112.199219 219.789062 C 110.851562 220.578125 111.191406 223.667969 112.964844 226.695312 C 114.734375 229.71875 117.261719 231.535156 118.609375 230.746094 C 119.957031 229.957031 119.617188 226.863281 117.84375 223.839844 Z M 117.84375 223.839844 " clip-rule="nonzero"/></clipPath><clipPath id="7827ac8a88"><path d="M 107.777344 138.433594 L 115.804688 138.433594 L 115.804688 149.957031 L 107.777344 149.957031 Z M 107.777344 138.433594 " clip-rule="nonzero"/></clipPath><clipPath id="ee65ce62f0"><path d="M 117.382812 140.042969 L 111.167969 151.121094 L 106.234375 148.355469 L 112.449219 137.273438 Z M 117.382812 140.042969 " clip-rule="nonzero"/></clipPath><clipPath id="bb7e7ba0a0"><path d="M 114.277344 145.578125 C 115.992188 142.519531 116.277344 139.421875 114.914062 138.660156 C 113.554688 137.894531 111.058594 139.753906 109.34375 142.8125 C 107.628906 145.867188 107.34375 148.964844 108.707031 149.730469 C 110.066406 150.492188 112.5625 148.632812 114.277344 145.578125 Z M 114.277344 145.578125 " clip-rule="nonzero"/></clipPath><clipPath id="64dba1a21e"><path d="M 139.054688 110.757812 L 150.375 110.757812 L 150.375 119.089844 L 139.054688 119.089844 Z M 139.054688 110.757812 " clip-rule="nonzero"/></clipPath><clipPath id="2eec5b7eaa"><path d="M 151.605469 113.941406 L 140.859375 120.714844 L 137.84375 115.929688 L 148.589844 109.15625 Z M 151.605469 113.941406 " clip-rule="nonzero"/></clipPath><clipPath id="cc4d8f2733"><path d="M 146.234375 117.328125 C 149.203125 115.457031 150.929688 112.871094 150.097656 111.550781 C 149.265625 110.226562 146.1875 110.671875 143.222656 112.539062 C 140.253906 114.410156 138.527344 116.996094 139.359375 118.316406 C 140.191406 119.636719 143.269531 119.195312 146.234375 117.328125 Z M 146.234375 117.328125 " clip-rule="nonzero"/></clipPath><clipPath id="39bc80c7bf"><path d="M 220.339844 110.550781 L 231.453125 110.550781 L 231.453125 119.296875 L 220.339844 119.296875 Z M 220.339844 110.550781 " clip-rule="nonzero"/></clipPath><clipPath id="9e4a192531"><path d="M 229.515625 120.851562 L 219.039062 113.671875 L 222.234375 109.007812 L 232.714844 116.1875 Z M 229.515625 120.851562 " clip-rule="nonzero"/></clipPath><clipPath id="f58478b60d"><path d="M 224.28125 117.265625 C 227.171875 119.246094 230.234375 119.808594 231.117188 118.519531 C 232 117.230469 230.371094 114.582031 227.476562 112.601562 C 224.585938 110.617188 221.527344 110.058594 220.644531 111.34375 C 219.761719 112.632812 221.390625 115.285156 224.28125 117.265625 Z M 224.28125 117.265625 " clip-rule="nonzero"/></clipPath><clipPath id="ca85838f90"><path d="M 251.414062 138.535156 L 259.128906 138.535156 L 259.128906 150.265625 L 251.414062 150.265625 Z M 251.414062 138.535156 " clip-rule="nonzero"/></clipPath><clipPath id="e780db0c15"><path d="M 255.652344 151.367188 L 249.871094 140.054688 L 254.90625 137.480469 L 260.6875 148.792969 Z M 255.652344 151.367188 " clip-rule="nonzero"/></clipPath><clipPath id="453ae3a7a8"><path d="M 252.761719 145.714844 C 254.359375 148.835938 256.78125 150.789062 258.171875 150.078125 C 259.5625 149.367188 259.394531 146.261719 257.796875 143.140625 C 256.203125 140.019531 253.78125 138.066406 252.390625 138.777344 C 251 139.488281 251.167969 142.59375 252.761719 145.714844 Z M 252.761719 145.714844 " clip-rule="nonzero"/></clipPath><clipPath id="9659e8fcb5"><path d="M 247.707031 220.4375 L 255.835938 220.4375 L 255.835938 231.859375 L 247.707031 231.859375 Z M 247.707031 220.4375 " clip-rule="nonzero"/></clipPath><clipPath id="4c71ed8925"><path d="M 246.140625 230.226562 L 252.484375 219.21875 L 257.382812 222.042969 L 251.042969 233.050781 Z M 246.140625 230.226562 " clip-rule="nonzero"/></clipPath><clipPath id="0a915274da"><path d="M 249.308594 224.726562 C 247.558594 227.765625 247.238281 230.859375 248.589844 231.640625 C 249.945312 232.417969 252.460938 230.589844 254.210938 227.550781 C 255.960938 224.515625 256.28125 221.417969 254.929688 220.640625 C 253.574219 219.859375 251.058594 221.691406 249.308594 224.726562 Z M 249.308594 224.726562 " clip-rule="nonzero"/></clipPath><clipPath id="91535d001b"><path d="M 220.03125 251.097656 L 231.246094 251.097656 L 231.246094 259.535156 L 220.03125 259.535156 Z M 220.03125 251.097656 " clip-rule="nonzero"/></clipPath><clipPath id="335319d2c4"><path d="M 218.75 256.320312 L 229.46875 249.5 L 232.503906 254.273438 L 221.785156 261.09375 Z M 218.75 256.320312 " clip-rule="nonzero"/></clipPath><clipPath id="6e27626d25"><path d="M 224.105469 252.914062 C 221.148438 254.796875 219.429688 257.390625 220.269531 258.707031 C 221.105469 260.023438 224.183594 259.566406 227.140625 257.6875 C 230.097656 255.804688 231.816406 253.210938 230.976562 251.890625 C 230.140625 250.574219 227.0625 251.03125 224.105469 252.914062 Z M 224.105469 252.914062 " clip-rule="nonzero"/></clipPath><clipPath id="adce620d7a"><path d="M 168.636719 140.792969 L 201.867188 140.792969 L 201.867188 181.421875 L 168.636719 181.421875 Z M 168.636719 140.792969 " clip-rule="nonzero"/></clipPath><clipPath id="47227e079b"><path d="M 185.253906 140.792969 C 176.078125 140.792969 168.636719 149.882812 168.636719 161.101562 C 168.636719 172.316406 176.078125 181.40625 185.253906 181.40625 C 194.429688 181.40625 201.867188 172.316406 201.867188 161.101562 C 201.867188 149.882812 194.429688 140.792969 185.253906 140.792969 Z M 185.253906 140.792969 " clip-rule="nonzero"/></clipPath><clipPath id="8b5c950d36"><path d="M 152.328125 183.292969 L 188.339844 183.292969 L 188.339844 221.671875 L 152.328125 221.671875 Z M 152.328125 183.292969 " clip-rule="nonzero"/></clipPath><clipPath id="20cd0a116f"><path d="M 171.820312 228.695312 L 144.933594 209.160156 L 168.816406 176.289062 L 195.703125 195.824219 Z M 171.820312 228.695312 " clip-rule="nonzero"/></clipPath><clipPath id="4d997ae99e"><path d="M 158.378906 218.925781 C 165.800781 224.320312 177.164062 221.339844 183.753906 212.265625 C 190.347656 203.191406 189.675781 191.460938 182.25 186.070312 C 174.828125 180.675781 163.464844 183.660156 156.871094 192.730469 C 150.28125 201.804688 150.953125 213.535156 158.378906 218.925781 Z M 158.378906 218.925781 " clip-rule="nonzero"/></clipPath><clipPath id="99a417c8f3"><path d="M 182.0625 183.601562 L 218.179688 183.601562 L 218.179688 221.878906 L 182.0625 221.878906 Z M 182.0625 183.601562 " clip-rule="nonzero"/></clipPath><clipPath id="4bbacce36c"><path d="M 225.488281 209.402344 L 198.601562 228.933594 L 174.722656 196.0625 L 201.605469 176.53125 Z M 225.488281 209.402344 " clip-rule="nonzero"/></clipPath><clipPath id="528fcb96e3"><path d="M 212.046875 219.167969 C 219.46875 213.773438 220.144531 202.046875 213.550781 192.972656 C 206.957031 183.898438 195.597656 180.914062 188.171875 186.308594 C 180.75 191.703125 180.074219 203.429688 186.667969 212.503906 C 193.257812 221.578125 204.621094 224.5625 212.046875 219.167969 Z M 212.046875 219.167969 " clip-rule="nonzero"/></clipPath><clipPath id="0e28524ebf"><path d="M 186.695312 158.496094 L 226.71875 158.496094 L 226.71875 192.554688 L 186.695312 192.554688 Z M 186.695312 158.496094 " clip-rule="nonzero"/></clipPath><clipPath id="f8ed5bec9b"><path d="M 220.867188 153.441406 L 231.132812 185.042969 L 192.492188 197.601562 L 182.222656 165.996094 Z M 220.867188 153.441406 " clip-rule="nonzero"/></clipPath><clipPath id="b415391cff"><path d="M 226 169.242188 C 223.164062 160.515625 212.21875 156.25 201.550781 159.714844 C 190.886719 163.179688 184.535156 173.066406 187.371094 181.792969 C 190.207031 190.519531 201.152344 194.785156 211.820312 191.320312 C 222.488281 187.855469 228.835938 177.96875 226 169.242188 Z M 226 169.242188 " clip-rule="nonzero"/></clipPath><clipPath id="a87e7a920e"><path d="M 143.789062 158.292969 L 183.8125 158.292969 L 183.8125 192.453125 L 143.789062 192.453125 Z M 143.789062 158.292969 " clip-rule="nonzero"/></clipPath><clipPath id="2d14a03ad8"><path d="M 139.371094 184.921875 L 149.640625 153.316406 L 188.28125 165.871094 L 178.015625 197.476562 Z M 139.371094 184.921875 " clip-rule="nonzero"/></clipPath><clipPath id="36eabec071"><path d="M 144.507812 169.117188 C 141.671875 177.84375 148.019531 187.730469 158.6875 191.195312 C 169.351562 194.660156 180.296875 190.394531 183.132812 181.667969 C 185.96875 172.941406 179.621094 163.054688 168.953125 159.589844 C 158.289062 156.125 147.34375 160.390625 144.507812 169.117188 Z M 144.507812 169.117188 " clip-rule="nonzero"/></clipPath><clipPath id="fcd0be8c56"><path d="M 158.296875 156.335938 L 212.210938 156.335938 L 212.210938 207.78125 L 158.296875 207.78125 Z M 158.296875 156.335938 " clip-rule="nonzero"/></clipPath><clipPath id="a537f1eb24"><path d="M 187.207031 157.757812 L 190.652344 168.382812 C 191.816406 171.972656 195.15625 174.402344 198.929688 174.402344 L 210.054688 174.402344 C 210.949219 174.402344 211.738281 174.976562 212.015625 175.824219 C 212.289062 176.671875 211.988281 177.601562 211.269531 178.128906 L 202.257812 184.6875 C 199.207031 186.910156 197.933594 190.839844 199.097656 194.429688 L 202.542969 205.058594 C 202.816406 205.90625 202.515625 206.832031 201.792969 207.355469 C 201.074219 207.878906 200.097656 207.878906 199.378906 207.351562 L 190.371094 200.792969 C 187.320312 198.574219 183.1875 198.574219 180.136719 200.792969 L 171.128906 207.351562 C 170.410156 207.878906 169.433594 207.878906 168.714844 207.355469 C 167.992188 206.832031 167.691406 205.90625 167.964844 205.058594 L 171.410156 194.429688 C 172.574219 190.839844 171.300781 186.910156 168.246094 184.6875 L 159.238281 178.128906 C 158.519531 177.601562 158.21875 176.671875 158.492188 175.824219 C 158.769531 174.976562 159.558594 174.402344 160.453125 174.402344 L 171.578125 174.402344 C 175.351562 174.402344 178.691406 171.972656 179.855469 168.382812 L 183.300781 157.757812 C 183.578125 156.910156 184.363281 156.335938 185.253906 156.335938 C 186.144531 156.335938 186.929688 156.910156 187.207031 157.757812 Z M 187.207031 157.757812 " clip-rule="nonzero"/></clipPath></defs><g clip-path="url(#ddf5058f6f)"><g clip-path="url(#631026bc44)"><g clip-path="url(#470cd43c54)"><g clip-path="url(#b81ba23881)"><g clip-path="url(#a0b8d53549)"><path fill="#ff6d4d" d="M 119.761719 63.289062 C 120.140625 59.984375 120.964844 56.753906 122.183594 53.660156 C 128.21875 38.324219 133.847656 20.382812 147.617188 10.875 C 159.125 2.933594 173.066406 -0.183594 186.6875 2.175781 C 198.492188 4.222656 211.179688 7.027344 221.324219 13.671875 C 235.65625 23.0625 242.292969 41.222656 250.664062 55.625 C 274.394531 96.4375 236.984375 131.65625 208.046875 156.089844 C 188.75 172.386719 157.945312 148.484375 143.738281 135.203125 C 135.171875 127.195312 123.988281 113.097656 119.261719 102.417969 C 114.996094 92.785156 118.203125 76.816406 119.761719 63.289062 " fill-opacity="1" fill-rule="nonzero"/></g></g></g></g></g><g clip-path="url(#515c01e654)"><path fill="#ff6d4d" d="M 153.183594 356.988281 C 150.574219 359.058594 147.703125 360.765625 144.648438 362.09375 C 129.519531 368.675781 112.832031 377.394531 96.351562 374.375 C 82.585938 371.851562 70.507812 364.191406 62.535156 352.875 C 55.625 343.066406 48.632812 332.101562 46.15625 320.214844 C 42.65625 303.421875 50.8125 285.863281 55.082031 269.742188 C 67.175781 224.050781 118.597656 225.597656 156.375 228.789062 C 181.574219 230.914062 186.460938 269.640625 187.121094 289.101562 C 187.515625 300.835938 185.449219 318.734375 181.238281 329.640625 C 177.4375 339.480469 163.863281 348.515625 153.183594 356.988281 " fill-opacity="1" fill-rule="nonzero"/></g><g clip-path="url(#ab99ce8b12)"><g clip-path="url(#e1cf8c4e9f)"><g clip-path="url(#51738e4351)"><g clip-path="url(#ce6e9d9702)"><g clip-path="url(#28730c4ba5)"><path fill="#ff6d4d" d="M 320.421875 273.933594 C 322.015625 276.863281 323.203125 279.980469 323.988281 283.21875 C 327.878906 299.257812 333.609375 317.199219 327.804688 332.921875 C 322.957031 346.058594 313.335938 356.644531 300.816406 362.5625 C 289.964844 367.6875 277.957031 372.699219 265.816406 373.101562 C 248.667969 373.667969 232.765625 362.617188 217.609375 355.644531 C 174.65625 335.886719 185.003906 285.476562 194.628906 248.792969 C 201.046875 224.324219 240.050781 226.152344 259.339844 228.84375 C 270.972656 230.464844 288.257812 235.570312 298.28125 241.59375 C 307.328125 247.027344 313.902344 261.957031 320.421875 273.933594 " fill-opacity="1" fill-rule="nonzero"/></g></g></g></g></g><g clip-path="url(#91d8359cd8)"><g clip-path="url(#e21cfda81d)"><g clip-path="url(#cb4f27dc18)"><g clip-path="url(#9c253ab4a5)"><g clip-path="url(#557dae8169)"><path fill="#ff6d4d" d="M 345.144531 214.9375 C 347.746094 212.863281 350.050781 210.453125 352.03125 207.777344 C 361.835938 194.527344 374.074219 180.242188 374.835938 163.519531 C 375.476562 149.546875 370.726562 136.070312 361.503906 125.765625 C 353.507812 116.835938 344.402344 107.5625 333.386719 102.480469 C 317.824219 95.300781 298.898438 99.300781 282.246094 99.832031 C 235.046875 101.34375 225.003906 151.746094 219.617188 189.246094 C 216.027344 214.253906 252.632812 227.710938 271.429688 232.726562 C 282.765625 235.746094 300.652344 237.757812 312.214844 236.105469 C 322.648438 234.617188 334.496094 223.429688 345.144531 214.9375 " fill-opacity="1" fill-rule="nonzero"/></g></g></g></g></g><g clip-path="url(#643615b97d)"><g clip-path="url(#56b3477dac)"><g clip-path="url(#424c7cedc0)"><g clip-path="url(#dde4bbbe33)"><g clip-path="url(#5ca366fa44)"><path fill="#ff6d4d" d="M 31.457031 216.734375 C 28.742188 214.808594 26.308594 212.535156 24.183594 209.976562 C 13.652344 197.304688 0.636719 183.734375 -1.066406 167.085938 C -2.484375 153.179688 1.496094 139.460938 10.121094 128.660156 C 17.601562 119.300781 26.167969 109.53125 36.875 103.84375 C 52.003906 95.804688 71.113281 98.730469 87.765625 98.328125 C 134.957031 97.183594 147.808594 146.925781 155.289062 184.046875 C 160.277344 208.804688 124.5 224.289062 106.023438 230.347656 C 94.878906 234 77.140625 237.011719 65.507812 236.011719 C 55.007812 235.113281 42.558594 224.613281 31.457031 216.734375 " fill-opacity="1" fill-rule="nonzero"/></g></g></g></g></g><g clip-path="url(#1254c6b38e)"><g clip-path="url(#a6f051ff21)"><path fill="#ff6d4d" d="M 94.085938 115.796875 L 280.160156 115.796875 L 280.160156 292.878906 L 94.085938 292.878906 Z M 94.085938 115.796875 " fill-opacity="1" fill-rule="nonzero"/></g></g><path stroke-linecap="butt" transform="matrix(0.0305704, -0.0708542, 0.0708542, 0.0305704, 127.115504, 323.676687)" fill="none" stroke-linejoin="miter" d="M 0.841606 1.921005 C 447.462237 205.61488 980.779579 205.573502 1600.833738 1.889828 " stroke="#cb288c" stroke-width="4" stroke-opacity="1" stroke-miterlimit="4"/><path stroke-linecap="butt" transform="matrix(-0.0375565, 0.067412, -0.067412, -0.0375565, 160.589041, 203.315127)" fill="none" stroke-linejoin="miter" d="M 0.842614 1.89444 C 447.450692 205.580162 980.791551 205.592484 1600.840554 1.887188 " stroke="#cb288c" stroke-width="4" stroke-opacity="1" stroke-miterlimit="4"/><path stroke-linecap="butt" transform="matrix(0.0305704, -0.0708542, 0.0708542, 0.0305704, 128.350191, 324.911463)" fill="none" stroke-linejoin="miter" d="M 0.844774 1.915233 C 447.465406 205.609108 980.802801 205.614209 1600.836906 1.884056 " stroke="#cb288c" stroke-width="4" stroke-opacity="1" stroke-miterlimit="4"/><path stroke-linecap="butt" transform="matrix(-0.0375565, 0.067412, -0.067412, -0.0375565, 161.823699, 204.549889)" fill="none" stroke-linejoin="miter" d="M 0.840025 1.900085 C 447.448103 205.585807 980.788962 205.598129 1600.837965 1.892833 " stroke="#cb288c" stroke-width="4" stroke-opacity="1" stroke-miterlimit="4"/><path stroke-linecap="butt" transform="matrix(-0.0454768, -0.0623437, 0.0623437, -0.0454768, 282.958462, 306.990801)" fill="none" stroke-linejoin="miter" d="M 0.842195 1.907184 C 447.424594 205.612858 980.755418 205.617177 1600.834666 1.92014 " stroke="#cb288c" stroke-width="4" stroke-opacity="1" stroke-miterlimit="4"/><path stroke-linecap="butt" transform="matrix(0.0389612, 0.06661, -0.06661, 0.0389612, 196.323332, 216.979308)" fill="none" stroke-linejoin="miter" d="M 0.847319 1.889749 C 447.440607 205.579479 980.783335 205.614475 1600.813672 1.899928 " stroke="#cb288c" stroke-width="4" stroke-opacity="1" stroke-miterlimit="4"/><path stroke-linecap="butt" transform="matrix(-0.0454768, -0.0623437, 0.0623437, -0.0454768, 284.649156, 306.555244)" fill="none" stroke-linejoin="miter" d="M 0.816206 1.899647 C 447.469333 205.594256 980.800156 205.598575 1600.808677 1.912603 " stroke="#cb288c" stroke-width="4" stroke-opacity="1" stroke-miterlimit="4"/><path stroke-linecap="butt" transform="matrix(0.0389612, 0.06661, -0.06661, 0.0389612, 198.014231, 216.543737)" fill="none" stroke-linejoin="miter" d="M 0.829067 1.871447 C 447.46605 205.586734 980.765083 205.596173 1600.839114 1.907184 " stroke="#cb288c" stroke-width="4" stroke-opacity="1" stroke-miterlimit="4"/><path stroke-linecap="butt" transform="matrix(-0.0746801, 0.019436, -0.019436, -0.0746801, 311.357444, 155.771313)" fill="none" stroke-linejoin="miter" d="M 0.835679 1.915156 C 447.454662 205.607164 980.776605 205.586503 1600.837746 1.914911 " stroke="#cb288c" stroke-width="4" stroke-opacity="1" stroke-miterlimit="4"/><path stroke-linecap="butt" transform="matrix(0.0767818, -0.00770851, 0.00770851, 0.0767818, 194.571292, 195.363928)" fill="none" stroke-linejoin="miter" d="M 0.813514 1.904738 C 447.446282 205.575129 980.76312 205.597335 1600.824508 1.875678 " stroke="#cb288c" stroke-width="4" stroke-opacity="1" stroke-miterlimit="4"/><path stroke-linecap="butt" transform="matrix(-0.0746801, 0.019436, -0.019436, -0.0746801, 311.572309, 154.03852)" fill="none" stroke-linejoin="miter" d="M 0.843528 1.88608 C 447.449761 205.627076 980.771704 205.606416 1600.845595 1.885835 " stroke="#cb288c" stroke-width="4" stroke-opacity="1" stroke-miterlimit="4"/><path stroke-linecap="butt" transform="matrix(0.0767818, -0.00770851, 0.00770851, 0.0767818, 194.878792, 193.645168)" fill="none" stroke-linejoin="miter" d="M 0.827604 1.906281 C 447.455316 205.627039 980.777211 205.598878 1600.833542 1.927588 " stroke="#cb288c" stroke-width="4" stroke-opacity="1" stroke-miterlimit="4"/><path stroke-linecap="butt" transform="matrix(0.0765957, 0.00937899, -0.00937899, 0.0765957, 49.09113, 177.671472)" fill="none" stroke-linejoin="miter" d="M 0.826971 1.892929 C 447.426127 205.615996 980.762566 205.587818 1600.848592 1.908884 " stroke="#cb288c" stroke-width="4" stroke-opacity="1" stroke-miterlimit="4"/><path stroke-linecap="butt" transform="matrix(-0.0729803, -0.025075, 0.025075, -0.0729803, 173.210033, 190.199006)" fill="none" stroke-linejoin="miter" d="M 0.806032 1.914657 C 447.451451 205.624195 980.763988 205.600684 1600.824412 1.923421 " stroke="#cb288c" stroke-width="4" stroke-opacity="1" stroke-miterlimit="4"/><path stroke-linecap="butt" transform="matrix(0.0765957, 0.00937899, -0.00937899, 0.0765957, 48.254094, 179.203992)" fill="none" stroke-linejoin="miter" d="M 0.845252 1.925109 C 447.438256 205.597931 980.780847 205.619998 1600.810476 1.896972 " stroke="#cb288c" stroke-width="4" stroke-opacity="1" stroke-miterlimit="4"/><path stroke-linecap="butt" transform="matrix(-0.0729803, -0.025075, 0.025075, -0.0729803, 172.212387, 191.632151)" fill="none" stroke-linejoin="miter" d="M 0.83299 1.899253 C 447.430536 205.625239 980.790946 205.585279 1600.85137 1.908017 " stroke="#cb288c" stroke-width="4" stroke-opacity="1" stroke-miterlimit="4"/><path stroke-linecap="butt" transform="matrix(0.00838228, 0.0767112, -0.0767112, 0.00838228, 172.575197, 55.781478)" fill="none" stroke-linejoin="miter" d="M 0.80965 1.883478 C 447.435744 205.589763 980.784809 205.614906 1600.812021 1.903089 " stroke="#cb288c" stroke-width="4" stroke-opacity="1" stroke-miterlimit="4"/><path stroke-linecap="butt" transform="matrix(0.00996559, -0.0765216, 0.0765216, 0.00996559, 185.76755, 176.573909)" fill="none" stroke-linejoin="miter" d="M 0.856644 1.905189 C 447.45777 205.617796 980.74914 205.590869 1600.84422 1.911725 " stroke="#cb288c" stroke-width="4" stroke-opacity="1" stroke-miterlimit="4"/><path stroke-linecap="butt" transform="matrix(0.00838228, 0.0767112, -0.0767112, 0.00838228, 170.892034, 55.316982)" fill="none" stroke-linejoin="miter" d="M 0.854884 1.894035 C 447.430658 205.594821 980.779722 205.619964 1600.806935 1.908147 " stroke="#cb288c" stroke-width="4" stroke-opacity="1" stroke-miterlimit="4"/><path stroke-linecap="butt" transform="matrix(0.00996559, -0.0765216, 0.0765216, 0.00996559, 184.163913, 175.883381)" fill="none" stroke-linejoin="miter" d="M 0.814668 1.886714 C 447.46599 205.592784 980.763897 205.616053 1600.802244 1.89325 " stroke="#cb288c" stroke-width="4" stroke-opacity="1" stroke-miterlimit="4"/><path stroke-linecap="butt" transform="matrix(0, -0.0771678, 0.0771678, 0, 184.289114, 285.719189)" fill="none" stroke-linejoin="miter" d="M 93.754289 12.50252 L 2520.182615 12.50252 " stroke="#ffffff" stroke-width="25" stroke-opacity="1" stroke-miterlimit="4"/><path stroke-linecap="round" transform="matrix(0, -0.0771678, 0.0771678, 0, 184.289114, 285.719189)" fill-opacity="1" fill="#ffffff" fill-rule="nonzero" stroke-linejoin="round" d="M 12.50888 12.50252 C 12.50888 -8.201139 29.314784 -25.007043 50.018443 -25.007043 C 70.722101 -25.007043 87.477385 -8.201139 87.477385 12.50252 C 87.477385 33.206179 70.722101 50.012083 50.018443 50.012083 C 29.314784 50.012083 12.50888 33.206179 12.50888 12.50252 " stroke="#ffffff" stroke-width="25" stroke-opacity="1" stroke-miterlimit="4"/><path stroke-linecap="round" transform="matrix(0, -0.0771678, 0.0771678, 0, 184.289114, 285.719189)" fill-opacity="1" fill="#ffffff" fill-rule="nonzero" stroke-linejoin="round" d="M 2601.428024 12.50252 C 2601.428024 33.206179 2584.67274 50.012083 2563.918461 50.012083 C 2543.214802 50.012083 2526.459519 33.206179 2526.459519 12.50252 C 2526.459519 -8.201139 2543.214802 -25.007043 2563.918461 -25.007043 C 2584.67274 -25.007043 2601.428024 -8.201139 2601.428024 12.50252 " stroke="#ffffff" stroke-width="25" stroke-opacity="1" stroke-miterlimit="4"/><path stroke-linecap="butt" transform="matrix(0.0771678, 0, 0, 0.0771678, 84.397713, 183.898714)" fill="none" stroke-linejoin="miter" d="M 93.757992 12.499611 L 2520.186317 12.499611 " stroke="#ffffff" stroke-width="25" stroke-opacity="1" stroke-miterlimit="4"/><path stroke-linecap="round" transform="matrix(0.0771678, 0, 0, 0.0771678, 84.397713, 183.898714)" fill-opacity="1" fill="#ffffff" fill-rule="nonzero" stroke-linejoin="round" d="M 12.512582 12.499611 C 12.512582 -8.204048 29.267866 -25.009952 50.022145 -25.009952 C 70.725804 -25.009952 87.481088 -8.204048 87.481088 12.499611 C 87.481088 33.20327 70.725804 50.009174 50.022145 50.009174 C 29.267866 50.009174 12.512582 33.20327 12.512582 12.499611 " stroke="#ffffff" stroke-width="25" stroke-opacity="1" stroke-miterlimit="4"/><path stroke-linecap="round" transform="matrix(0.0771678, 0, 0, 0.0771678, 84.397713, 183.898714)" fill-opacity="1" fill="#ffffff" fill-rule="nonzero" stroke-linejoin="round" d="M 2601.431727 12.499611 C 2601.431727 33.20327 2584.676443 50.009174 2563.922164 50.009174 C 2543.218505 50.009174 2526.463221 33.20327 2526.463221 12.499611 C 2526.463221 -8.204048 2543.218505 -25.009952 2563.922164 -25.009952 C 2584.676443 -25.009952 2601.431727 -8.204048 2601.431727 12.499611 " stroke="#ffffff" stroke-width="25" stroke-opacity="1" stroke-miterlimit="4"/><path stroke-linecap="butt" transform="matrix(0.0384077, 0.0669308, -0.0669308, 0.0384077, 146.630649, 116.163676)" fill="none" stroke-linejoin="miter" d="M -0.0232179 9.000553 L 2042.610934 8.995468 " stroke="#fff17d" stroke-width="18" stroke-opacity="1" stroke-miterlimit="4"/><path stroke-linecap="butt" transform="matrix(0.0666345, 0.0389193, -0.0389193, 0.0666345, 114.056702, 144.515791)" fill="none" stroke-linejoin="miter" d="M 0.0177702 9.014917 L 2042.589769 9.022901 " stroke="#fff17d" stroke-width="18" stroke-opacity="1" stroke-miterlimit="4"/><path stroke-linecap="butt" transform="matrix(0.0668293, -0.0385839, 0.0385839, 0.0668293, 116.654126, 223.667153)" fill="none" stroke-linejoin="miter" d="M -0.0214258 9.001323 L 2042.610856 9.004929 " stroke="#fff17d" stroke-width="18" stroke-opacity="1" stroke-miterlimit="4"/><path stroke-linecap="butt" transform="matrix(0.0385839, -0.0668293, 0.0668293, 0.0385839, 145.246694, 252.768118)" fill="none" stroke-linejoin="miter" d="M -0.0236133 9.006128 L 2042.608669 9.002522 " stroke="#fff17d" stroke-width="18" stroke-opacity="1" stroke-miterlimit="4"/><g clip-path="url(#68c10b5354)"><g clip-path="url(#72463da2f3)"><g clip-path="url(#c54a0f54a0)"><path fill="#fff17d" d="M 140.621094 248.710938 L 151.90625 254.542969 L 149.308594 259.566406 L 138.023438 253.734375 Z M 140.621094 248.710938 " fill-opacity="1" fill-rule="nonzero"/></g></g></g><g clip-path="url(#a9446fce3e)"><g clip-path="url(#0e92a32228)"><g clip-path="url(#77187fb950)"><path fill="#fff17d" d="M 114.640625 218.359375 L 121.054688 229.324219 L 116.171875 232.179688 L 109.757812 221.214844 Z M 114.640625 218.359375 " fill-opacity="1" fill-rule="nonzero"/></g></g></g><g clip-path="url(#7827ac8a88)"><g clip-path="url(#ee65ce62f0)"><g clip-path="url(#bb7e7ba0a0)"><path fill="#fff17d" d="M 117.382812 140.042969 L 111.167969 151.121094 L 106.234375 148.355469 L 112.449219 137.273438 Z M 117.382812 140.042969 " fill-opacity="1" fill-rule="nonzero"/></g></g></g><g clip-path="url(#64dba1a21e)"><g clip-path="url(#2eec5b7eaa)"><g clip-path="url(#cc4d8f2733)"><path fill="#fff17d" d="M 151.605469 113.941406 L 140.859375 120.714844 L 137.84375 115.929688 L 148.589844 109.15625 Z M 151.605469 113.941406 " fill-opacity="1" fill-rule="nonzero"/></g></g></g><g clip-path="url(#39bc80c7bf)"><g clip-path="url(#9e4a192531)"><g clip-path="url(#f58478b60d)"><path fill="#fff17d" d="M 229.515625 120.851562 L 219.039062 113.671875 L 222.234375 109.007812 L 232.714844 116.1875 Z M 229.515625 120.851562 " fill-opacity="1" fill-rule="nonzero"/></g></g></g><g clip-path="url(#ca85838f90)"><g clip-path="url(#e780db0c15)"><g clip-path="url(#453ae3a7a8)"><path fill="#fff17d" d="M 255.652344 151.367188 L 249.871094 140.054688 L 254.90625 137.480469 L 260.6875 148.792969 Z M 255.652344 151.367188 " fill-opacity="1" fill-rule="nonzero"/></g></g></g><g clip-path="url(#9659e8fcb5)"><g clip-path="url(#4c71ed8925)"><g clip-path="url(#0a915274da)"><path fill="#fff17d" d="M 246.140625 230.226562 L 252.484375 219.21875 L 257.382812 222.042969 L 251.042969 233.050781 Z M 246.140625 230.226562 " fill-opacity="1" fill-rule="nonzero"/></g></g></g><g clip-path="url(#91535d001b)"><g clip-path="url(#335319d2c4)"><g clip-path="url(#6e27626d25)"><path fill="#fff17d" d="M 218.75 256.320312 L 229.46875 249.5 L 232.503906 254.273438 L 221.785156 261.09375 Z M 218.75 256.320312 " fill-opacity="1" fill-rule="nonzero"/></g></g></g><g clip-path="url(#adce620d7a)"><g clip-path="url(#47227e079b)"><path fill="#b9a241" d="M 168.636719 140.792969 L 201.867188 140.792969 L 201.867188 181.421875 L 168.636719 181.421875 Z M 168.636719 140.792969 " fill-opacity="1" fill-rule="nonzero"/></g></g><g clip-path="url(#8b5c950d36)"><g clip-path="url(#20cd0a116f)"><g clip-path="url(#4d997ae99e)"><path fill="#b9a241" d="M 171.820312 228.695312 L 144.933594 209.160156 L 168.816406 176.289062 L 195.703125 195.824219 Z M 171.820312 228.695312 " fill-opacity="1" fill-rule="nonzero"/></g></g></g><g clip-path="url(#99a417c8f3)"><g clip-path="url(#4bbacce36c)"><g clip-path="url(#528fcb96e3)"><path fill="#b9a241" d="M 225.488281 209.402344 L 198.601562 228.933594 L 174.722656 196.0625 L 201.605469 176.53125 Z M 225.488281 209.402344 " fill-opacity="1" fill-rule="nonzero"/></g></g></g><g clip-path="url(#0e28524ebf)"><g clip-path="url(#f8ed5bec9b)"><g clip-path="url(#b415391cff)"><path fill="#b9a241" d="M 220.867188 153.441406 L 231.132812 185.042969 L 192.492188 197.601562 L 182.222656 165.996094 Z M 220.867188 153.441406 " fill-opacity="1" fill-rule="nonzero"/></g></g></g><g clip-path="url(#a87e7a920e)"><g clip-path="url(#2d14a03ad8)"><g clip-path="url(#36eabec071)"><path fill="#b9a241" d="M 139.371094 184.921875 L 149.640625 153.316406 L 188.28125 165.871094 L 178.015625 197.476562 Z M 139.371094 184.921875 " fill-opacity="1" fill-rule="nonzero"/></g></g></g><g clip-path="url(#fcd0be8c56)"><g clip-path="url(#a537f1eb24)"><path fill="#fff17d" d="M 154.125 151.738281 L 216.480469 151.738281 L 216.480469 211.078125 L 154.125 211.078125 Z M 154.125 151.738281 " fill-opacity="1" fill-rule="nonzero"/></g></g></svg>